<svg width="73" height="161" viewBox="0 0 73 161" fill="none" xmlns="http://www.w3.org/2000/svg">
<g filter="url(#filter0_d)">
<rect x="20" y="10" width="33" height="121" rx="2" fill="url(#paint0_linear)"/>
<path d="M31.586 98.694C32.09 98.694 32.582 98.796 33.062 99C33.53 99.204 33.956 99.456 34.34 99.756C34.724 100.056 35.144 100.482 35.6 101.034C36.056 101.574 36.452 102.084 36.788 102.564C37.112 103.032 37.52 103.65 38.012 104.418L38.534 105.21V100.548C38.534 100.308 38.516 100.152 38.48 100.08C38.444 99.996 38.354 99.882 38.21 99.738L36.914 98.55V98.514L41 99.144V107.622H40.964L38.264 105.372C37.508 104.748 36.782 104.196 36.086 103.716C35.15 103.08 34.346 102.63 33.674 102.366C32.99 102.102 32.258 101.97 31.478 101.97C30.506 101.97 29.774 102.126 29.282 102.438C28.778 102.75 28.526 103.182 28.526 103.734C28.526 103.914 28.544 104.07 28.58 104.202C28.604 104.322 28.688 104.412 28.832 104.472L32.45 106.002V106.038L29.192 107.442C28.508 106.026 28.166 104.55 28.166 103.014C28.166 101.622 28.478 100.554 29.102 99.81C29.726 99.066 30.554 98.694 31.586 98.694ZM39.434 93.3038C40.37 92.9438 40.838 92.4158 40.838 91.7198C40.838 91.0238 40.37 90.4958 39.434 90.1358C38.486 89.7758 36.896 89.5958 34.664 89.5958C32.42 89.5958 30.836 89.7758 29.912 90.1358C28.976 90.4958 28.508 91.0238 28.508 91.7198C28.508 92.4158 28.976 92.9438 29.912 93.3038C30.836 93.6518 32.42 93.8258 34.664 93.8258C36.908 93.8258 38.498 93.6518 39.434 93.3038ZM29.786 95.7158C28.706 94.7678 28.166 93.4358 28.166 91.7198C28.166 90.0038 28.706 88.6778 29.786 87.7418C30.866 86.7938 32.498 86.3198 34.682 86.3198C36.866 86.3198 38.498 86.7938 39.578 87.7418C40.646 88.6778 41.18 90.0038 41.18 91.7198C41.18 93.4358 40.64 94.7678 39.56 95.7158C38.48 96.6518 36.848 97.1198 34.664 97.1198C32.48 97.1198 30.854 96.6518 29.786 95.7158ZM28.022 80.5056H39.362C39.554 80.5056 39.698 80.4396 39.794 80.3076L40.964 78.8856H41V85.0956H40.964L39.794 83.6556C39.698 83.5356 39.554 83.4756 39.362 83.4756H31.01C30.806 83.4756 30.686 83.5356 30.65 83.6556L30.038 85.3296H30.002L28.022 80.5056ZM41.18 73.332C41.18 74.724 40.898 75.864 40.334 76.752C39.758 77.628 39.026 78.066 38.138 78.066C37.43 78.066 36.854 77.802 36.41 77.274C35.954 76.734 35.642 75.99 35.474 75.042L35.402 75.15C34.814 76.014 34.256 76.662 33.728 77.094C33.188 77.526 32.528 77.742 31.748 77.742C30.668 77.742 29.804 77.334 29.156 76.518C28.496 75.702 28.166 74.664 28.166 73.404C28.166 72.264 28.43 71.28 28.958 70.452C29.486 69.624 30.194 69.21 31.082 69.21C31.754 69.21 32.3 69.456 32.72 69.948C33.128 70.428 33.404 71.082 33.548 71.91L33.926 71.208C34.43 70.284 34.952 69.6 35.492 69.156C36.032 68.712 36.704 68.49 37.508 68.49C38.54 68.49 39.41 68.922 40.118 69.786C40.826 70.65 41.18 71.832 41.18 73.332ZM36.68 72.864L35.546 74.898C36.05 75.546 36.89 75.87 38.066 75.87C38.822 75.87 39.47 75.612 40.01 75.096C40.55 74.568 40.82 73.92 40.82 73.152C40.82 72.516 40.652 72 40.316 71.604C39.968 71.196 39.488 70.992 38.876 70.992C38.42 70.992 38.03 71.142 37.706 71.442C37.382 71.73 37.04 72.204 36.68 72.864ZM30.29 75.384C30.794 75.384 31.238 75.222 31.622 74.898C31.994 74.574 32.378 74.052 32.774 73.332L33.476 72.072C32.96 71.568 32.228 71.316 31.28 71.316C30.464 71.316 29.798 71.514 29.282 71.91C28.766 72.294 28.508 72.816 28.508 73.476C28.508 74.04 28.67 74.502 28.994 74.862C29.318 75.21 29.75 75.384 30.29 75.384Z" fill="#FAF8EA"/>
<rect x="20" y="117.444" width="33" height="2.00832" fill="#FAF8EA"/>
<rect x="20" y="120.959" width="33" height="2.0083" fill="#FAF8EA"/>
<rect x="20" y="124.473" width="33" height="2.00829" fill="#FAF8EA"/>
</g>
<defs>
<filter id="filter0_d" x="0" y="0" width="73" height="161" filterUnits="userSpaceOnUse" color-interpolation-filters="sRGB">
<feFlood flood-opacity="0" result="BackgroundImageFix"/>
<feColorMatrix in="SourceAlpha" type="matrix" values="0 0 0 0 0 0 0 0 0 0 0 0 0 0 0 0 0 0 127 0"/>
<feOffset dy="10"/>
<feGaussianBlur stdDeviation="10"/>
<feColorMatrix type="matrix" values="0 0 0 0 0 0 0 0 0 0 0 0 0 0 0 0 0 0 0.15 0"/>
<feBlend mode="normal" in2="BackgroundImageFix" result="effect1_dropShadow"/>
<feBlend mode="normal" in="SourceGraphic" in2="effect1_dropShadow" result="shape"/>
</filter>
<linearGradient id="paint0_linear" x1="33.2" y1="10" x2="80.6422" y2="22.0351" gradientUnits="userSpaceOnUse">
<stop stop-color="#F3DC41"/>
<stop offset="0.972701" stop-color="#FF89B9"/>
</linearGradient>
</defs>
</svg>
