<svg width="73" height="161" viewBox="0 0 73 161" fill="none" xmlns="http://www.w3.org/2000/svg">
<g filter="url(#filter0_d)">
<rect x="20" y="10" width="33" height="121" rx="2" fill="url(#paint0_linear)"/>
<path d="M31.586 98.694C32.09 98.694 32.582 98.796 33.062 99C33.53 99.204 33.956 99.456 34.34 99.756C34.724 100.056 35.144 100.482 35.6 101.034C36.056 101.574 36.452 102.084 36.788 102.564C37.112 103.032 37.52 103.65 38.012 104.418L38.534 105.21V100.548C38.534 100.308 38.516 100.152 38.48 100.08C38.444 99.996 38.354 99.882 38.21 99.738L36.914 98.55V98.514L41 99.144V107.622H40.964L38.264 105.372C37.508 104.748 36.782 104.196 36.086 103.716C35.15 103.08 34.346 102.63 33.674 102.366C32.99 102.102 32.258 101.97 31.478 101.97C30.506 101.97 29.774 102.126 29.282 102.438C28.778 102.75 28.526 103.182 28.526 103.734C28.526 103.914 28.544 104.07 28.58 104.202C28.604 104.322 28.688 104.412 28.832 104.472L32.45 106.002V106.038L29.192 107.442C28.508 106.026 28.166 104.55 28.166 103.014C28.166 101.622 28.478 100.554 29.102 99.81C29.726 99.066 30.554 98.694 31.586 98.694ZM39.434 93.3038C40.37 92.9438 40.838 92.4158 40.838 91.7198C40.838 91.0238 40.37 90.4958 39.434 90.1358C38.486 89.7758 36.896 89.5958 34.664 89.5958C32.42 89.5958 30.836 89.7758 29.912 90.1358C28.976 90.4958 28.508 91.0238 28.508 91.7198C28.508 92.4158 28.976 92.9438 29.912 93.3038C30.836 93.6518 32.42 93.8258 34.664 93.8258C36.908 93.8258 38.498 93.6518 39.434 93.3038ZM29.786 95.7158C28.706 94.7678 28.166 93.4358 28.166 91.7198C28.166 90.0038 28.706 88.6778 29.786 87.7418C30.866 86.7938 32.498 86.3198 34.682 86.3198C36.866 86.3198 38.498 86.7938 39.578 87.7418C40.646 88.6778 41.18 90.0038 41.18 91.7198C41.18 93.4358 40.64 94.7678 39.56 95.7158C38.48 96.6518 36.848 97.1198 34.664 97.1198C32.48 97.1198 30.854 96.6518 29.786 95.7158ZM28.022 80.5056H39.362C39.554 80.5056 39.698 80.4396 39.794 80.3076L40.964 78.8856H41V85.0956H40.964L39.794 83.6556C39.698 83.5356 39.554 83.4756 39.362 83.4756H31.01C30.806 83.4756 30.686 83.5356 30.65 83.6556L30.038 85.3296H30.002L28.022 80.5056ZM36.302 74.2011C36.302 75.2211 35.972 76.1031 35.312 76.8471C34.64 77.5911 33.704 77.9631 32.504 77.9631C31.196 77.9631 30.146 77.5251 29.354 76.6491C28.562 75.7731 28.166 74.6031 28.166 73.1391C28.166 71.4231 28.718 70.1211 29.822 69.2331C30.926 68.3451 32.522 67.9011 34.61 67.9011C36.638 67.9011 38.24 68.4051 39.416 69.4131C40.592 70.4211 41.18 71.8611 41.18 73.7331C41.18 75.0051 40.958 76.2591 40.514 77.4951L37.328 76.1451V76.1091L40.586 74.3451C40.694 74.2851 40.76 74.2311 40.784 74.1831C40.808 74.1351 40.826 74.0331 40.838 73.8771V73.5891C40.838 72.7491 40.382 72.1431 39.47 71.7711C38.558 71.3871 37.076 71.1831 35.024 71.1591C35.876 71.9391 36.302 72.9531 36.302 74.2011ZM35.51 72.7611C35.51 72.2451 35.264 71.7111 34.772 71.1591H34.61C32.414 71.1591 30.848 71.3271 29.912 71.6631C28.976 71.9871 28.508 72.4671 28.508 73.1031C28.508 73.6431 28.826 74.0931 29.462 74.4531C30.098 74.8011 30.98 74.9751 32.108 74.9751C33.116 74.9751 33.938 74.7951 34.574 74.4351C35.198 74.0751 35.51 73.5171 35.51 72.7611Z" fill="#FAF8EA"/>
<rect x="20" y="117.444" width="33" height="2.00832" fill="#FAF8EA"/>
<rect x="20" y="120.959" width="33" height="2.0083" fill="#FAF8EA"/>
<rect x="20" y="124.473" width="33" height="2.00829" fill="#FAF8EA"/>
</g>
<defs>
<filter id="filter0_d" x="0" y="0" width="73" height="161" filterUnits="userSpaceOnUse" color-interpolation-filters="sRGB">
<feFlood flood-opacity="0" result="BackgroundImageFix"/>
<feColorMatrix in="SourceAlpha" type="matrix" values="0 0 0 0 0 0 0 0 0 0 0 0 0 0 0 0 0 0 127 0"/>
<feOffset dy="10"/>
<feGaussianBlur stdDeviation="10"/>
<feColorMatrix type="matrix" values="0 0 0 0 0 0 0 0 0 0 0 0 0 0 0 0 0 0 0.15 0"/>
<feBlend mode="normal" in2="BackgroundImageFix" result="effect1_dropShadow"/>
<feBlend mode="normal" in="SourceGraphic" in2="effect1_dropShadow" result="shape"/>
</filter>
<linearGradient id="paint0_linear" x1="33.2" y1="10" x2="80.6422" y2="22.0351" gradientUnits="userSpaceOnUse">
<stop stop-color="#F3DC41"/>
<stop offset="0.972701" stop-color="#FF89B9"/>
</linearGradient>
</defs>
</svg>
