<svg width="73" height="161" viewBox="0 0 73 161" fill="none" xmlns="http://www.w3.org/2000/svg">
<g filter="url(#filter0_d)">
<rect x="20" y="10" width="33" height="121" rx="2" fill="#00C6C2"/>
<path d="M35.096 102.168V103.104H39.416C39.596 103.104 39.74 103.044 39.848 102.924L40.964 101.718H41V107.73H40.964L39.83 106.524C39.722 106.416 39.578 106.362 39.398 106.362H29.948C29.768 106.362 29.624 106.416 29.516 106.524L28.382 107.73H28.346V100.782C28.346 99.57 28.61 98.574 29.138 97.794C29.666 97.002 30.482 96.606 31.586 96.606C32.546 96.606 33.314 96.954 33.89 97.65C34.454 98.334 34.784 99.3 34.88 100.548H34.916L35.6 98.226L39.488 96.588C39.704 96.504 39.932 96.342 40.172 96.102L40.964 95.328H41V99.54L35.312 101.772C35.168 101.844 35.096 101.976 35.096 102.168ZM29.048 103.104H34.736V102.168C34.736 100.776 33.752 100.08 31.784 100.08C29.732 100.08 28.706 100.752 28.706 102.096V102.78C28.706 102.924 28.73 103.014 28.778 103.05C28.814 103.086 28.904 103.104 29.048 103.104ZM36.14 86.9105V92.3105H36.176C37.28 92.3105 38.108 92.0705 38.66 91.5905C39.2 91.1105 39.47 90.4925 39.47 89.7365C39.47 88.4645 38.918 87.5525 37.814 87.0005V86.9645C40.034 87.4205 41.144 88.7465 41.144 90.9425C41.144 92.1785 40.76 93.2225 39.992 94.0745C39.224 94.9265 38.096 95.3525 36.608 95.3525C35.036 95.3525 33.866 94.9265 33.098 94.0745C32.33 93.2225 31.946 92.1425 31.946 90.8345C31.946 90.3305 32.012 89.8565 32.144 89.4125C32.276 88.9685 32.48 88.5545 32.756 88.1705C33.032 87.7745 33.428 87.4625 33.944 87.2345C34.448 87.0065 35.048 86.8925 35.744 86.8925C35.864 86.8925 35.996 86.8985 36.14 86.9105ZM32.288 90.8705C32.288 91.3385 32.564 91.6925 33.116 91.9325C33.656 92.1725 34.556 92.2985 35.816 92.3105V89.6645C35.66 89.6525 35.48 89.6465 35.276 89.6465C34.16 89.6465 33.386 89.7545 32.954 89.9705C32.51 90.1745 32.288 90.4745 32.288 90.8705ZM39.506 81.138C39.158 81.138 38.882 81.264 38.678 81.516C38.474 81.756 38.222 82.206 37.922 82.866L37.346 84.09C36.794 85.254 35.942 85.836 34.79 85.836C33.926 85.836 33.236 85.506 32.72 84.846C32.204 84.186 31.946 83.286 31.946 82.146C31.946 81.09 32.108 80.034 32.432 78.978L35.042 79.986V80.022L32.54 81.426C32.36 81.534 32.27 81.672 32.27 81.84V82.092C32.27 82.512 32.378 82.86 32.594 83.136C32.81 83.412 33.122 83.55 33.53 83.55C33.902 83.55 34.202 83.424 34.43 83.172C34.658 82.908 34.904 82.482 35.168 81.894L35.672 80.742C35.948 80.094 36.272 79.602 36.644 79.266C37.016 78.918 37.52 78.744 38.156 78.744C39.104 78.744 39.842 79.11 40.37 79.842C40.886 80.574 41.144 81.552 41.144 82.776C41.144 83.928 40.958 85.032 40.586 86.088L37.796 85.098V85.062L40.586 83.622C40.742 83.55 40.82 83.424 40.82 83.244V82.83C40.82 82.314 40.7 81.906 40.46 81.606C40.22 81.294 39.902 81.138 39.506 81.138ZM32.09 68.807H39.632C39.836 68.807 39.986 68.753 40.082 68.645L40.964 67.745H41V71.759H39.074C39.71 71.987 40.214 72.341 40.586 72.821C40.958 73.301 41.144 73.865 41.144 74.513C41.144 75.401 40.826 76.079 40.19 76.547C39.554 77.015 38.624 77.249 37.4 77.249C36.716 77.249 35.402 77.237 33.458 77.213C33.278 77.213 33.134 77.267 33.026 77.375L32.126 78.257H32.09V74.279L34.466 74.297C36.05 74.297 36.89 74.297 36.986 74.297C37.862 74.297 38.528 74.207 38.984 74.027C39.44 73.847 39.668 73.523 39.668 73.055C39.668 72.563 39.398 72.131 38.858 71.759H33.476C33.296 71.759 33.146 71.813 33.026 71.921L32.126 72.803H32.09V68.807ZM35.744 51.9639C36.212 51.9639 36.938 51.9759 37.922 51.9999C38.906 52.0119 39.5 52.0179 39.704 52.0179C39.884 52.0179 40.028 51.9579 40.136 51.8379L40.964 50.9559H41V55.9959H40.964L40.136 55.1499C40.016 55.0299 39.878 54.9699 39.722 54.9699C39.674 54.9699 39.152 54.9639 38.156 54.9519C37.16 54.9279 36.494 54.9159 36.158 54.9159C35.258 54.9159 34.58 55.0179 34.124 55.2219C33.668 55.4139 33.44 55.7739 33.44 56.3019C33.44 56.8539 33.698 57.3279 34.214 57.7239C34.658 57.6159 35.168 57.5619 35.744 57.5619C36.176 57.5619 36.896 57.5739 37.904 57.5979C38.9 57.6099 39.5 57.6159 39.704 57.6159C39.884 57.6159 40.028 57.5619 40.136 57.4539L40.964 56.5539H41V61.6119H40.964L40.136 60.7479C40.028 60.6399 39.89 60.5859 39.722 60.5859C39.686 60.5859 39.17 60.5799 38.174 60.5679C37.166 60.5439 36.494 60.5319 36.158 60.5319C35.258 60.5319 34.58 60.6279 34.124 60.8199C33.668 61.0119 33.44 61.3719 33.44 61.8999C33.44 62.4279 33.704 62.8719 34.232 63.2319H39.704C39.896 63.2319 40.04 63.1779 40.136 63.0699L40.964 62.1879H41V67.2279H40.964L40.136 66.3459C40.04 66.2379 39.896 66.1839 39.704 66.1839H33.476C33.296 66.1839 33.146 66.2379 33.026 66.3459L32.126 67.2279H32.09V63.2319H33.998C32.63 62.7399 31.946 61.7859 31.946 60.3699C31.946 59.0139 32.654 58.1439 34.07 57.7599C33.446 57.5439 32.936 57.1719 32.54 56.6439C32.144 56.1159 31.946 55.4859 31.946 54.7539C31.946 53.8539 32.27 53.1639 32.918 52.6839C33.566 52.2039 34.508 51.9639 35.744 51.9639ZM28.346 45.7938V42.9138H28.382L31.352 47.1798L31.316 47.2158L28.346 45.7938ZM36.14 42.1038V47.5038H36.176C37.28 47.5038 38.108 47.2638 38.66 46.7838C39.2 46.3038 39.47 45.6858 39.47 44.9298C39.47 43.6578 38.918 42.7458 37.814 42.1938V42.1578C40.034 42.6138 41.144 43.9398 41.144 46.1358C41.144 47.3718 40.76 48.4158 39.992 49.2678C39.224 50.1198 38.096 50.5458 36.608 50.5458C35.036 50.5458 33.866 50.1198 33.098 49.2678C32.33 48.4158 31.946 47.3358 31.946 46.0278C31.946 45.5238 32.012 45.0498 32.144 44.6058C32.276 44.1618 32.48 43.7478 32.756 43.3638C33.032 42.9678 33.428 42.6558 33.944 42.4278C34.448 42.1998 35.048 42.0858 35.744 42.0858C35.864 42.0858 35.996 42.0918 36.14 42.1038ZM32.288 46.0638C32.288 46.5318 32.564 46.8858 33.116 47.1258C33.656 47.3658 34.556 47.4918 35.816 47.5038V44.8578C35.66 44.8458 35.48 44.8398 35.276 44.8398C34.16 44.8398 33.386 44.9478 32.954 45.1638C32.51 45.3678 32.288 45.6678 32.288 46.0638Z" fill="#FAF8EA"/>
<rect x="20" y="117.444" width="33" height="2.00831" fill="#FAF8EA"/>
<rect x="20" y="120.958" width="33" height="2.0083" fill="#FAF8EA"/>
<rect x="20" y="124.473" width="33" height="2.00829" fill="#FAF8EA"/>
</g>
<defs>
<filter id="filter0_d" x="0" y="0" width="73" height="161" filterUnits="userSpaceOnUse" color-interpolation-filters="sRGB">
<feFlood flood-opacity="0" result="BackgroundImageFix"/>
<feColorMatrix in="SourceAlpha" type="matrix" values="0 0 0 0 0 0 0 0 0 0 0 0 0 0 0 0 0 0 127 0"/>
<feOffset dy="10"/>
<feGaussianBlur stdDeviation="10"/>
<feColorMatrix type="matrix" values="0 0 0 0 0 0 0 0 0 0 0 0 0 0 0 0 0 0 0.15 0"/>
<feBlend mode="normal" in2="BackgroundImageFix" result="effect1_dropShadow"/>
<feBlend mode="normal" in="SourceGraphic" in2="effect1_dropShadow" result="shape"/>
</filter>
</defs>
</svg>
