<svg width="75" height="161" viewBox="0 0 75 161" fill="none" xmlns="http://www.w3.org/2000/svg">
<g filter="url(#filter0_d)">
<rect x="20" y="10" width="35" height="121" rx="2" fill="url(#paint0_linear)"/>
<path d="M31.049 103.745V97.659C31.049 96.299 31.2757 95.245 31.729 94.497C32.1823 93.749 32.868 93.375 33.786 93.375C34.636 93.375 35.3103 93.6923 35.809 94.327C36.3077 94.9503 36.6023 95.806 36.693 96.894H36.727C36.7497 95.7267 37.016 94.786 37.526 94.072C38.036 93.358 38.7443 93.001 39.651 93.001C40.705 93.001 41.5267 93.392 42.116 94.174C42.7053 94.956 43 96.0213 43 97.37V103.745H42.966L41.895 102.606C41.793 102.504 41.657 102.453 41.487 102.453H32.562C32.392 102.453 32.256 102.504 32.154 102.606L31.083 103.745H31.049ZM36.948 98.543V99.376H42.32C42.4787 99.376 42.575 99.3533 42.609 99.308C42.643 99.2627 42.66 99.1493 42.66 98.968V98.492C42.66 97.03 41.691 96.299 39.753 96.299C38.8237 96.299 38.1267 96.4803 37.662 96.843C37.186 97.1943 36.948 97.761 36.948 98.543ZM31.729 99.376H36.608V98.56C36.608 97.9253 36.3757 97.438 35.911 97.098C35.435 96.758 34.772 96.588 33.922 96.588C33.1513 96.588 32.5393 96.7523 32.086 97.081C31.6213 97.4097 31.389 97.88 31.389 98.492V99.07C31.389 99.1947 31.4117 99.2797 31.457 99.325C31.491 99.359 31.5817 99.376 31.729 99.376ZM33.65 89.9257C33.65 90.2997 33.5367 90.6227 33.31 90.8947C33.072 91.1554 32.766 91.2857 32.392 91.2857C31.9953 91.2857 31.678 91.1554 31.44 90.8947C31.1907 90.6227 31.066 90.2997 31.066 89.9257C31.066 89.5291 31.1907 89.2004 31.44 88.9397C31.678 88.6791 31.9953 88.5487 32.392 88.5487C32.766 88.5487 33.072 88.6791 33.31 88.9397C33.5367 89.2004 33.65 89.5291 33.65 89.9257ZM34.585 92.2547V88.4807H41.776C41.9573 88.4807 42.0933 88.4297 42.184 88.3277L42.966 87.4947H43V92.2547H42.966L42.184 91.4217C42.0933 91.3197 41.9573 91.2687 41.776 91.2687H35.894C35.724 91.2687 35.5823 91.3197 35.469 91.4217L34.619 92.2547H34.585ZM35.639 81.5496C35.061 81.7763 34.772 82.122 34.772 82.5866C34.772 83.0513 35.0553 83.397 35.622 83.6236C36.1773 83.8503 37.2313 83.9636 38.784 83.9636C40.3253 83.9636 41.385 83.8503 41.963 83.6236C42.541 83.397 42.83 83.0513 42.83 82.5866C42.83 82.122 42.5467 81.7763 41.98 81.5496C41.4133 81.323 40.3537 81.2096 38.801 81.2096C37.2597 81.2096 36.2057 81.323 35.639 81.5496ZM43.136 82.5866C43.136 83.9693 42.7677 85.063 42.031 85.8676C41.283 86.661 40.2007 87.0576 38.784 87.0576C37.39 87.0576 36.319 86.6553 35.571 85.8506C34.823 85.046 34.449 83.958 34.449 82.5866C34.449 81.204 34.823 80.1103 35.571 79.3056C36.3077 78.501 37.3843 78.0986 38.801 78.0986C40.195 78.0986 41.266 78.5066 42.014 79.3226C42.762 80.1273 43.136 81.2153 43.136 82.5866Z" fill="#FAF8EA"/>
<rect x="20" y="117.444" width="35" height="2.0083" fill="#FAF8EA"/>
<rect x="20" y="120.958" width="35" height="2.00829" fill="#FAF8EA"/>
<rect x="20" y="124.473" width="35" height="2.0083" fill="#FAF8EA"/>
</g>
<defs>
<filter id="filter0_d" x="0" y="0" width="75" height="161" filterUnits="userSpaceOnUse" color-interpolation-filters="sRGB">
<feFlood flood-opacity="0" result="BackgroundImageFix"/>
<feColorMatrix in="SourceAlpha" type="matrix" values="0 0 0 0 0 0 0 0 0 0 0 0 0 0 0 0 0 0 127 0"/>
<feOffset dy="10"/>
<feGaussianBlur stdDeviation="10"/>
<feColorMatrix type="matrix" values="0 0 0 0 0 0 0 0 0 0 0 0 0 0 0 0 0 0 0.15 0"/>
<feBlend mode="normal" in2="BackgroundImageFix" result="effect1_dropShadow"/>
<feBlend mode="normal" in="SourceGraphic" in2="effect1_dropShadow" result="shape"/>
</filter>
<linearGradient id="paint0_linear" x1="34" y1="10" x2="83.9404" y2="23.4367" gradientUnits="userSpaceOnUse">
<stop stop-color="#F38141"/>
<stop offset="0.972701" stop-color="#FF89B9"/>
</linearGradient>
</defs>
</svg>
