<svg width="185" height="197" viewBox="0 0 185 197" fill="none" xmlns="http://www.w3.org/2000/svg">
<g filter="url(#filter0_d)">
<rect x="20" y="10" width="145" height="157" rx="2" fill="url(#paint0_linear)"/>
<rect x="27.1847" y="157.88" width="147.88" height="2.61261" transform="rotate(-90 27.1847 157.88)" fill="#FAF8EA"/>
<rect x="27.1847" y="162.44" width="147.88" height="2.61261" transform="rotate(-90 27.1847 162.44)" fill="#FAF8EA"/>
<rect x="27.1847" y="167" width="147.88" height="2.61261" transform="rotate(-90 27.1847 167)" fill="#FAF8EA"/>
<path d="M59.3878 46.8921H56.4598L48.1798 34.0761V42.8601C48.1798 43.1001 48.2758 43.3481 48.4678 43.6041L50.9398 46.8441V46.8921H44.9638V46.8441L47.3638 43.6281C47.5718 43.3561 47.6758 43.1001 47.6758 42.8601V33.7881C47.6758 33.4681 47.6038 33.2121 47.4598 33.0201L45.0598 30.0681V30.0201H50.7238L58.8838 42.6921V34.0521C58.8838 33.7801 58.7878 33.5241 58.5958 33.2841L56.1478 30.0681V30.0201H62.1238V30.0681L59.6998 33.2841C59.4918 33.5721 59.3878 33.8281 59.3878 34.0521V46.8921ZM69.2254 36.5001C68.9054 35.6841 68.4174 35.2761 67.7614 35.2761C67.1054 35.2761 66.6174 35.6761 66.2974 36.4761C65.9774 37.2601 65.8174 38.7481 65.8174 40.9401C65.8174 43.1161 65.9774 44.6121 66.2974 45.4281C66.6174 46.2441 67.1054 46.6521 67.7614 46.6521C68.4174 46.6521 68.9054 46.2521 69.2254 45.4521C69.5454 44.6521 69.7054 43.1561 69.7054 40.9641C69.7054 38.7881 69.5454 37.3001 69.2254 36.5001ZM67.7614 47.0841C65.8094 47.0841 64.2654 46.5641 63.1294 45.5241C62.0094 44.4681 61.4494 42.9401 61.4494 40.9401C61.4494 38.9721 62.0174 37.4601 63.1534 36.4041C64.2894 35.3481 65.8254 34.8201 67.7614 34.8201C69.7134 34.8201 71.2574 35.3481 72.3934 36.4041C73.5294 37.4441 74.0974 38.9641 74.0974 40.9641C74.0974 42.9321 73.5214 44.4441 72.3694 45.5001C71.2334 46.5561 69.6974 47.0841 67.7614 47.0841ZM82.8191 35.0121V35.4921H79.8671V43.5081C79.8671 44.0521 79.9791 44.4761 80.2031 44.7801C80.4271 45.0681 80.7391 45.2121 81.1391 45.2121C81.7471 45.2121 82.2111 44.9161 82.5311 44.3241L82.5791 44.3481C82.4351 45.1161 82.0751 45.7641 81.4991 46.2921C80.9391 46.8201 80.1311 47.0841 79.0751 47.0841C76.9951 47.0841 75.9551 45.9881 75.9551 43.7961V35.4921H74.6351V35.0121H75.7151C76.0511 35.0121 76.2991 34.9241 76.4591 34.7481L79.8191 30.9801H79.8671V35.0121H82.8191ZM94.2439 40.4121H87.0439V40.4601C87.0439 41.9321 87.3639 43.0361 88.0039 43.7721C88.6439 44.4921 89.4679 44.8521 90.4759 44.8521C92.1719 44.8521 93.3879 44.1161 94.1239 42.6441H94.1719C93.5639 45.6041 91.7959 47.0841 88.8679 47.0841C87.2199 47.0841 85.8279 46.5721 84.6919 45.5481C83.5559 44.5241 82.9879 43.0201 82.9879 41.0361C82.9879 38.9401 83.5559 37.3801 84.6919 36.3561C85.8279 35.3321 87.2679 34.8201 89.0119 34.8201C89.6839 34.8201 90.3159 34.9081 90.9079 35.0841C91.4999 35.2601 92.0519 35.5321 92.5639 35.9001C93.0919 36.2681 93.5079 36.7961 93.8119 37.4841C94.1159 38.1561 94.2679 38.9561 94.2679 39.8841C94.2679 40.0441 94.2599 40.2201 94.2439 40.4121ZM88.9639 35.2761C88.3399 35.2761 87.8679 35.6441 87.5479 36.3801C87.2279 37.1001 87.0599 38.3001 87.0439 39.9801H90.5719C90.5879 39.7721 90.5959 39.5321 90.5959 39.2601C90.5959 37.7721 90.4519 36.7401 90.1639 36.1641C89.8919 35.5721 89.4919 35.2761 88.9639 35.2761ZM101.941 44.9001C101.941 44.4361 101.773 44.0681 101.437 43.7961C101.117 43.5241 100.517 43.1881 99.6366 42.7881L98.0046 42.0201C96.4526 41.2841 95.6766 40.1481 95.6766 38.6121C95.6766 37.4601 96.1166 36.5401 96.9966 35.8521C97.8766 35.1641 99.0766 34.8201 100.597 34.8201C102.005 34.8201 103.413 35.0361 104.821 35.4681L103.477 38.9481H103.429L101.557 35.6121C101.413 35.3721 101.229 35.2521 101.005 35.2521H100.669C100.109 35.2521 99.6446 35.3961 99.2766 35.6841C98.9086 35.9721 98.7246 36.3881 98.7246 36.9321C98.7246 37.4281 98.8926 37.8281 99.2286 38.1321C99.5806 38.4361 100.149 38.7641 100.933 39.1161L102.469 39.7881C103.333 40.1561 103.989 40.5881 104.437 41.0841C104.901 41.5801 105.133 42.2521 105.133 43.1001C105.133 44.3641 104.645 45.3481 103.669 46.0521C102.693 46.7401 101.389 47.0841 99.7566 47.0841C98.2206 47.0841 96.7486 46.8361 95.3406 46.3401L96.6606 42.6201H96.7086L98.6286 46.3401C98.7246 46.5481 98.8926 46.6521 99.1326 46.6521H99.6846C100.373 46.6521 100.917 46.4921 101.317 46.1721C101.733 45.8521 101.941 45.4281 101.941 44.9001ZM118.772 36.5001C118.452 35.6841 117.964 35.2761 117.308 35.2761C116.652 35.2761 116.164 35.6761 115.844 36.4761C115.524 37.2601 115.364 38.7481 115.364 40.9401C115.364 43.1161 115.524 44.6121 115.844 45.4281C116.164 46.2441 116.652 46.6521 117.308 46.6521C117.964 46.6521 118.452 46.2521 118.772 45.4521C119.092 44.6521 119.252 43.1561 119.252 40.9641C119.252 38.7881 119.092 37.3001 118.772 36.5001ZM117.308 47.0841C115.356 47.0841 113.812 46.5641 112.676 45.5241C111.556 44.4681 110.996 42.9401 110.996 40.9401C110.996 38.9721 111.564 37.4601 112.7 36.4041C113.836 35.3481 115.372 34.8201 117.308 34.8201C119.26 34.8201 120.804 35.3481 121.94 36.4041C123.076 37.4441 123.644 38.9641 123.644 40.9641C123.644 42.9321 123.068 44.4441 121.916 45.5001C120.78 46.5561 119.244 47.0841 117.308 47.0841ZM137.289 39.8841C137.289 40.4601 137.273 41.4201 137.241 42.7641C137.225 44.0921 137.217 44.8921 137.217 45.1641C137.217 45.4041 137.289 45.5961 137.433 45.7401L138.633 46.8441V46.8921H131.889V46.8441L133.041 45.7401C133.185 45.5961 133.257 45.4121 133.257 45.1881C133.257 45.1401 133.265 44.4521 133.281 43.1241C133.313 41.7801 133.329 40.8841 133.329 40.4361C133.329 39.2361 133.201 38.3321 132.945 37.7241C132.689 37.1161 132.209 36.8121 131.505 36.8121C130.801 36.8121 130.209 37.1641 129.729 37.8681V45.1641C129.729 45.4201 129.801 45.6121 129.945 45.7401L131.121 46.8441V46.8921H124.401V46.8441L125.577 45.7401C125.721 45.6121 125.793 45.4201 125.793 45.1641V36.8601C125.793 36.6201 125.721 36.4201 125.577 36.2601L124.401 35.0601V35.0121H129.729V37.5561C130.385 35.7321 131.657 34.8201 133.545 34.8201C134.745 34.8201 135.665 35.2521 136.305 36.1161C136.961 36.9801 137.289 38.2361 137.289 39.8841ZM54.5878 75.5881C54.5878 75.8441 54.6758 76.0521 54.8518 76.2121L56.6278 77.8441V77.8921H48.2278V77.8441L50.0038 76.2121C50.1798 76.0361 50.2678 75.8281 50.2678 75.5881V61.5001H48.8998C48.7078 61.5001 48.5718 61.5241 48.4918 61.5721C48.4278 61.6041 48.3558 61.7081 48.2758 61.8841L45.3238 67.5001H45.2758V61.0201H59.5798V67.5001H59.5318L56.5798 61.8841C56.4998 61.7081 56.4198 61.6041 56.3398 61.5721C56.2758 61.5241 56.1478 61.5001 55.9558 61.5001H54.5878V75.5881ZM79.0628 66.0601L77.4308 68.8681C77.1748 69.2841 76.9988 69.6441 76.9028 69.9481L74.1668 77.8921H71.4788L69.1748 71.2201L66.8708 77.8921H64.1588L61.0628 68.7721C60.8388 68.1481 60.6708 67.7241 60.5588 67.5001L59.8148 66.0601V66.0121H65.7908V66.0601L64.9748 67.4281C64.8628 67.6201 64.8388 67.8201 64.9028 68.0281L67.2788 75.3001L68.9348 70.5001L68.3588 68.7721C68.1828 68.2441 68.0148 67.8201 67.8548 67.5001L67.1108 66.0601V66.0121H73.0868V66.0601L72.2708 67.4281C72.1588 67.6201 72.1348 67.8201 72.1988 68.0281L74.5988 75.2761L76.4228 69.8761C76.5028 69.6361 76.5348 69.4761 76.5188 69.3961C76.5188 69.3161 76.4628 69.1721 76.3508 68.9641L74.9588 66.0601V66.0121H79.0628V66.0601ZM82.3613 64.6921C81.8333 64.6921 81.3773 64.5321 80.9933 64.2121C80.6253 63.8761 80.4413 63.4441 80.4413 62.9161C80.4413 62.3561 80.6253 61.9081 80.9933 61.5721C81.3773 61.2201 81.8333 61.0441 82.3613 61.0441C82.9213 61.0441 83.3853 61.2201 83.7533 61.5721C84.1213 61.9081 84.3053 62.3561 84.3053 62.9161C84.3053 63.4441 84.1213 63.8761 83.7533 64.2121C83.3853 64.5321 82.9213 64.6921 82.3613 64.6921ZM79.0733 66.0121H84.4013V76.1641C84.4013 76.4201 84.4733 76.6121 84.6173 76.7401L85.7933 77.8441V77.8921H79.0733V77.8441L80.2493 76.7401C80.3933 76.6121 80.4653 76.4201 80.4653 76.1641V67.8601C80.4653 67.6201 80.3933 67.4201 80.2493 67.2601L79.0733 66.0601V66.0121ZM94.3269 66.0121V66.4921H91.3749V74.5081C91.3749 75.0521 91.4869 75.4761 91.7109 75.7801C91.9349 76.0681 92.2469 76.2121 92.6469 76.2121C93.2549 76.2121 93.7189 75.9161 94.0389 75.3241L94.0869 75.3481C93.9429 76.1161 93.5829 76.7641 93.0069 77.2921C92.4469 77.8201 91.6389 78.0841 90.5829 78.0841C88.5029 78.0841 87.4629 76.9881 87.4629 74.7961V66.4921H86.1429V66.0121H87.2229C87.5589 66.0121 87.8069 65.9241 87.9669 65.7481L91.3269 61.9801H91.3749V66.0121H94.3269ZM102.436 66.0121V66.4921H99.4843V74.5081C99.4843 75.0521 99.5963 75.4761 99.8203 75.7801C100.044 76.0681 100.356 76.2121 100.756 76.2121C101.364 76.2121 101.828 75.9161 102.148 75.3241L102.196 75.3481C102.052 76.1161 101.692 76.7641 101.116 77.2921C100.556 77.8201 99.7483 78.0841 98.6923 78.0841C96.6123 78.0841 95.5723 76.9881 95.5723 74.7961V66.4921H94.2523V66.0121H95.3323C95.6683 66.0121 95.9163 65.9241 96.0763 65.7481L99.4363 61.9801H99.4843V66.0121H102.436ZM113.861 71.4121H106.661V71.4601C106.661 72.9321 106.981 74.0361 107.621 74.7721C108.261 75.4921 109.085 75.8521 110.093 75.8521C111.789 75.8521 113.005 75.1161 113.741 73.6441H113.789C113.181 76.6041 111.413 78.0841 108.485 78.0841C106.837 78.0841 105.445 77.5721 104.309 76.5481C103.173 75.5241 102.605 74.0201 102.605 72.0361C102.605 69.9401 103.173 68.3801 104.309 67.3561C105.445 66.3321 106.885 65.8201 108.629 65.8201C109.301 65.8201 109.933 65.9081 110.525 66.0841C111.117 66.2601 111.669 66.5321 112.181 66.9001C112.709 67.2681 113.125 67.7961 113.429 68.4841C113.733 69.1561 113.885 69.9561 113.885 70.8841C113.885 71.0441 113.877 71.2201 113.861 71.4121ZM108.581 66.2761C107.957 66.2761 107.485 66.6441 107.165 67.3801C106.845 68.1001 106.677 69.3001 106.661 70.9801H110.189C110.205 70.7721 110.213 70.5321 110.213 70.2601C110.213 68.7721 110.069 67.7401 109.781 67.1641C109.509 66.5721 109.109 66.2761 108.581 66.2761ZM124.731 66.6121L123.411 70.3801H123.363L121.467 68.1241C121.323 67.9481 121.179 67.9081 121.035 68.0041C120.731 68.2281 120.387 68.6921 120.003 69.3961V75.8761C120.003 76.1161 120.123 76.3161 120.363 76.4761L122.715 77.8441V77.8921H114.675V77.8441L115.851 76.7401C115.995 76.6121 116.067 76.4201 116.067 76.1641V67.8601C116.067 67.6201 115.995 67.4201 115.851 67.2601L114.675 66.0601V66.0121H120.003V69.0841C120.227 68.1401 120.603 67.3641 121.131 66.7561C121.659 66.1321 122.315 65.8201 123.099 65.8201C123.787 65.8201 124.331 66.0841 124.731 66.6121Z" fill="#FAF8EA"/>
</g>
<defs>
<filter id="filter0_d" x="0" y="0" width="185" height="197" filterUnits="userSpaceOnUse" color-interpolation-filters="sRGB">
<feFlood flood-opacity="0" result="BackgroundImageFix"/>
<feColorMatrix in="SourceAlpha" type="matrix" values="0 0 0 0 0 0 0 0 0 0 0 0 0 0 0 0 0 0 127 0"/>
<feOffset dy="10"/>
<feGaussianBlur stdDeviation="10"/>
<feColorMatrix type="matrix" values="0 0 0 0 0 0 0 0 0 0 0 0 0 0 0 0 0 0 0.15 0"/>
<feBlend mode="normal" in2="BackgroundImageFix" result="effect1_dropShadow"/>
<feBlend mode="normal" in="SourceGraphic" in2="effect1_dropShadow" result="shape"/>
</filter>
<linearGradient id="paint0_linear" x1="83.5769" y1="10" x2="167.497" y2="121.445" gradientUnits="userSpaceOnUse">
<stop stop-color="#3FABBA"/>
<stop offset="0.972701" stop-color="#7C68F8"/>
</linearGradient>
</defs>
</svg>
